<svg data-v-423bf9ae="" xmlns="http://www.w3.org/2000/svg" viewBox="0 0 365 90" class="iconLeft"><!----><!----><!----><g data-v-423bf9ae="" id="d4e530c5-2304-4f72-bdab-806489e26a0b" fill="black" transform="matrix(5.474453012044838,0,0,5.474453012044838,85.76364970476152,0.27372251486014676)"><path d="M4.00 9.87C4.00 10.71 3.98 10.85 3.85 11.05C3.74 11.23 3.58 11.31 3.22 11.31C2.86 11.31 2.63 11.23 2.55 11.00C2.46 10.75 2.44 10.47 2.44 8.05C2.44 5.75 2.48 5.40 2.56 5.12C2.63 4.94 2.79 4.86 3.16 4.86C3.57 4.86 3.77 4.94 3.81 5.12C3.85 5.26 3.89 5.46 3.89 5.92C3.89 5.98 3.89 6.05 3.88 6.10L5.92 6.10C5.94 5.92 5.94 5.82 5.94 5.56C5.94 4.93 5.88 4.41 5.75 4.00C5.45 3.05 4.72 2.69 3.18 2.69C1.85 2.69 1.19 2.90 0.83 3.53C0.46 4.17 0.31 4.80 0.31 8.08C0.31 11.49 0.46 12.14 0.83 12.78C1.19 13.44 1.82 13.65 3.18 13.65C4.52 13.65 5.15 13.44 5.52 12.78C5.84 12.22 6.01 11.65 6.01 9.32C6.01 8.34 5.99 7.60 5.98 7.24L2.98 7.24L2.98 9.37L4.00 9.37ZM11.44 13.47L11.44 11.12L8.96 11.12L8.96 9.11L11.41 9.11L11.41 6.97L8.96 6.97L8.96 5.11L11.45 5.11L11.45 2.87L6.76 2.87L6.76 13.47ZM20.69 13.47L20.68 2.87L17.58 2.87L16.49 7.48L16.39 7.48L15.41 2.87L12.31 2.87L12.31 13.47L14.31 13.47L14.31 7.11L14.39 7.11L16.02 13.47L16.98 13.47L18.59 7.11L18.68 7.11L18.68 13.47ZM25.05 9.41C25.05 10.28 25.03 10.65 24.89 11.05C24.84 11.21 24.68 11.28 24.39 11.28C23.97 11.28 23.83 11.21 23.77 11.03C23.67 10.72 23.63 10.39 23.63 8.05C23.63 5.75 23.67 5.40 23.77 5.12C23.83 4.94 23.97 4.86 24.32 4.86C24.68 4.86 24.86 4.94 24.91 5.12C24.96 5.32 25.00 5.63 25.00 6.75L27.06 6.75C27.08 6.40 27.09 6.08 27.09 5.81C27.09 3.56 26.70 2.69 24.32 2.69C22.99 2.69 22.33 2.90 21.97 3.53C21.60 4.17 21.45 4.80 21.45 8.08C21.45 11.35 21.60 12.17 21.97 12.78C22.33 13.43 22.99 13.65 24.39 13.65C26.75 13.65 27.12 12.61 27.12 10.36C27.12 10.07 27.10 9.74 27.08 9.41ZM33.75 13.47L33.75 13.40C33.66 13.09 33.64 12.85 33.43 11.13C33.28 9.90 33.12 9.27 32.97 8.93C32.87 8.68 32.75 8.60 32.63 8.50L32.63 8.41C33.24 8.06 33.54 7.91 33.54 5.73C33.54 3.68 33.05 2.87 31.15 2.87L27.94 2.87L27.94 13.47L30.14 13.47L30.14 9.34L30.48 9.34C30.76 9.34 30.88 9.48 30.98 10.46C31.26 12.91 31.30 13.12 31.42 13.47ZM30.14 7.36L30.14 5.05L30.70 5.05C31.14 5.05 31.32 5.26 31.32 6.10C31.32 7.08 31.16 7.36 30.76 7.36ZM39.09 13.47L39.09 11.12L36.61 11.12L36.61 9.11L39.06 9.11L39.06 6.97L36.61 6.97L36.61 5.11L39.10 5.11L39.10 2.87L34.41 2.87L34.41 13.47ZM44.83 6.16C44.91 5.89 44.94 5.60 44.94 5.03C44.94 3.23 44.27 2.69 42.38 2.69C40.29 2.69 39.76 3.37 39.76 5.36C39.76 6.76 39.80 7.60 40.38 8.11C40.95 8.62 41.83 8.83 42.52 9.30C42.90 9.56 43.05 9.77 43.05 10.32C43.05 11.21 42.92 11.40 42.36 11.40C41.80 11.40 41.69 11.13 41.69 10.32C41.69 10.16 41.69 10.04 41.72 9.93L39.89 9.93C39.80 10.26 39.77 10.88 39.77 11.41C39.77 13.08 40.57 13.65 42.32 13.65C44.46 13.65 45.09 12.88 45.09 10.36C45.09 8.60 44.81 8.11 44.20 7.67C43.65 7.31 43.09 7.18 42.25 6.69C41.90 6.48 41.75 6.31 41.75 5.70C41.75 5.04 41.85 4.83 42.38 4.83C42.91 4.83 43.02 5.04 43.02 5.70C43.02 5.95 43.02 6.02 43.01 6.16ZM49.29 13.47L49.29 5.11L50.96 5.11L50.96 2.87L45.43 2.87L45.43 5.11L47.10 5.11L47.10 13.47Z"></path></g><!----><g data-v-423bf9ae="" id="d164fa68-adaa-4ea0-baa1-0b6cd8226a0b" transform="matrix(3.7478185476427925,0,0,3.7478185476427925,-10.973822571713512,-0.39577007910554585)" stroke="none" fill="black"><path d="M12 24.158c-3.678 0-9-2.849-9-8C3 10.697 4.341 6.742 11.669.283a.5.5 0 1 1 .662.75C5.289 7.24 4 10.997 4 16.158c0 4.886 5.298 7 8 7a.5.5 0 0 1 0 1z"></path><path d="M12 24.158a.502.502 0 0 1-.354-.146l-2.5-2.5a.496.496 0 0 1-.116-.183l-2-5.5a.5.5 0 0 1-.021-.263l1.5-8a.418.418 0 0 1 .032-.104l3-7a.5.5 0 0 1 .919.393l-2.978 6.95-1.465 7.811 1.916 5.268 2.421 2.421a.5.5 0 0 1-.354.853z"></path><path d="M5.5 21.158a.501.501 0 0 1-.465-.686l1.946-4.865-1.472-7.856a.5.5 0 1 1 .982-.185l1.5 8a.498.498 0 0 1-.027.278l-2 5a.499.499 0 0 1-.464.314zM15 8.158a.497.497 0 0 1-.277-.084L12 6.259 9.277 8.074a.499.499 0 0 1-.677-.116l-1.5-2a.5.5 0 1 1 .8-.6L9.116 6.98l2.606-1.738a.5.5 0 0 1 .555 0l2.606 1.738L16.1 5.359a.5.5 0 0 1 .8.6l-1.5 2a.5.5 0 0 1-.4.199z"></path><path d="M7.5 16.158H4a.5.5 0 0 1 0-1h3.5a.5.5 0 0 1 0 1zM17.5 22.158a.473.473 0 0 1-.083-.007l-3-.5-4.917.007-2.918.493a.5.5 0 0 1-.164-.986l3-.5 5.082-.007 3.082.507a.5.5 0 0 1-.082.993z"></path><path d="M12 24.158a.5.5 0 0 1 0-1c2.702 0 8-2.114 8-7 0-5.162-1.289-8.918-8.331-15.125a.5.5 0 1 1 .662-.75C19.659 6.742 21 10.697 21 16.158c0 5.152-5.322 8-9 8z"></path><path d="M12 24.158a.5.5 0 0 1-.354-.853l2.421-2.421 1.916-5.268-1.465-7.811L11.54.855a.5.5 0 1 1 .919-.393l3 7a.498.498 0 0 1 .032.104l1.5 8a.5.5 0 0 1-.021.263l-2 5.5a.496.496 0 0 1-.116.183l-2.5 2.5a.498.498 0 0 1-.354.146z"></path><path d="M18.5 21.158a.5.5 0 0 1-.464-.314l-2-5a.508.508 0 0 1-.027-.278l1.5-8a.499.499 0 1 1 .982.184l-1.473 7.857 1.946 4.865a.5.5 0 0 1-.464.686z"></path><path d="M20 16.158h-3.5a.5.5 0 0 1 0-1H20a.5.5 0 0 1 0 1z"></path></g><!----></svg>